<?xml version="1.0" encoding="utf-8"?>
<!-- Generator: Adobe Illustrator 16.0.0, SVG Export Plug-In . SVG Version: 6.00 Build 0)  -->
<!DOCTYPE svg PUBLIC "-//W3C//DTD SVG 1.1//EN" "http://www.w3.org/Graphics/SVG/1.1/DTD/svg11.dtd">
<svg version="1.1" id="Layer_1" xmlns="http://www.w3.org/2000/svg" xmlns:xlink="http://www.w3.org/1999/xlink" x="0px" y="0px"
	 width="48px" height="52.926px" viewBox="0 0 48 52.926" enable-background="new 0 0 48 52.926" xml:space="preserve">
<g>
	<rect x="19.1" y="21.562" width="14.702" height="12.252"/>
	<path d="M47.844,15.328c-0.141-0.68-0.376-1.339-0.697-1.954c-0.622-1.187-1.593-2.274-2.763-2.943
		c-0.126-0.076-0.254-0.147-0.383-0.215L28.373,1.407c-0.447-0.321-0.931-0.596-1.442-0.813C26.029,0.211,25.039,0,24,0
		s-2.029,0.211-2.93,0.594c-0.514,0.217-0.996,0.492-1.443,0.813L3.999,10.215c-0.13,0.068-0.257,0.139-0.383,0.215
		c-1.17,0.669-2.141,1.756-2.763,2.943c-0.321,0.615-0.557,1.274-0.697,1.954C-0.002,16.097,0,16.784,0,17.57
		c0,1.665,0,3.33,0,4.995c0,2.103,0,4.206,0,6.308c0,1.804,0,3.606,0,5.41c0,0.395,0,0.789,0,1.185c0,0.527-0.005,1.025,0.061,1.55
		c0.064,0.512,0.182,1.016,0.35,1.503c0.327,0.95,0.848,1.83,1.52,2.576c0.37,0.411,0.812,0.868,1.297,1.145l0.011,0.006
		c0.364,0.253,0.753,0.474,1.161,0.659l15.59,8.857c0.202,0.128,0.41,0.246,0.625,0.354c0,0,0.028,0.017,0.029,0.015
		c1.01,0.507,2.15,0.793,3.357,0.793c1.208,0,2.348-0.286,3.357-0.793c0.001,0.002,0.029-0.015,0.029-0.015
		c0.215-0.108,0.423-0.227,0.625-0.354l15.59-8.857c0.408-0.186,0.797-0.406,1.161-0.659l0.01-0.006
		c0.485-0.276,0.928-0.733,1.298-1.145c0.672-0.746,1.192-1.626,1.52-2.576c0.168-0.487,0.285-0.991,0.35-1.503
		C48.005,36.493,48,35.995,48,35.468c0-0.396,0-0.79,0-1.185c0-1.804,0-3.606,0-5.41c0-2.103,0-4.205,0-6.308
		c0-1.665,0-3.33,0-4.995C48,16.784,48.002,16.097,47.844,15.328z M14.198,28.913v4.901h-2.45V14.211h19.604v2.45H28.9H14.198
		V28.913z M36.252,38.715H16.648V19.112h19.604V38.715z"/>
</g>
</svg>
