<?xml version="1.0" encoding="utf-8"?>
<!-- Generator: Adobe Illustrator 16.0.0, SVG Export Plug-In . SVG Version: 6.00 Build 0)  -->
<!DOCTYPE svg PUBLIC "-//W3C//DTD SVG 1.1//EN" "http://www.w3.org/Graphics/SVG/1.1/DTD/svg11.dtd">
<svg version="1.1" id="Layer_1" xmlns="http://www.w3.org/2000/svg" xmlns:xlink="http://www.w3.org/1999/xlink" x="0px" y="0px"
	 width="48px" height="52.926px" viewBox="0 0 48 52.926" enable-background="new 0 0 48 52.926" xml:space="preserve">
<g>
	<rect x="14.568" y="32.832" width="1.538" height="1.538"/>
	<path d="M47.844,15.328c-0.141-0.68-0.376-1.339-0.697-1.954c-0.622-1.187-1.593-2.274-2.763-2.943
		c-0.126-0.076-0.254-0.147-0.383-0.215L28.373,1.407c-0.447-0.321-0.931-0.596-1.442-0.813C26.029,0.211,25.039,0,24,0
		s-2.029,0.211-2.93,0.594c-0.513,0.217-0.996,0.492-1.443,0.813L3.999,10.215c-0.129,0.068-0.257,0.139-0.383,0.215
		c-1.17,0.669-2.141,1.756-2.762,2.943c-0.322,0.615-0.557,1.274-0.697,1.954C-0.002,16.097,0,16.784,0,17.57
		c0,1.665,0,3.33,0,4.995c0,2.103,0,4.206,0,6.308c0,1.804,0,3.606,0,5.41c0,0.395,0,0.789,0,1.185c0,0.527-0.005,1.025,0.061,1.55
		c0.064,0.512,0.181,1.016,0.349,1.503c0.327,0.95,0.848,1.83,1.52,2.576c0.37,0.411,0.812,0.868,1.297,1.145l0.01,0.006
		c0.365,0.253,0.753,0.474,1.161,0.659l15.591,8.857c0.202,0.128,0.41,0.246,0.625,0.354c0,0,0.028,0.017,0.029,0.015
		c1.011,0.507,2.151,0.793,3.358,0.793c1.208,0,2.348-0.286,3.357-0.793c0.001,0.002,0.029-0.015,0.029-0.015
		c0.215-0.108,0.423-0.227,0.625-0.354l15.59-8.857c0.408-0.186,0.797-0.406,1.161-0.659l0.01-0.006
		c0.485-0.276,0.928-0.733,1.298-1.145c0.672-0.746,1.192-1.626,1.52-2.576c0.168-0.487,0.285-0.991,0.35-1.503
		C48.005,36.493,48,35.995,48,35.468c0-0.396,0-0.79,0-1.185c0-1.804,0-3.606,0-5.41c0-2.103,0-4.205,0-6.308
		c0-1.665,0-3.33,0-4.995C48,16.784,48.002,16.097,47.844,15.328z M17.645,34.37c0,0.85-0.688,1.538-1.539,1.538H13.03V22.066h3.076
		c0.851,0,1.539,0.689,1.539,1.538V34.37z M34.18,33.346c-1.679,3.076-2.654,2.691-7.688,2.691c-5.035,0-7.309-3.205-7.309-3.205
		V22.066l0.835-0.082c3.932-0.786,5.038-7.068,5.038-8.51c0-1.538,2.585,0.206,3.354,1.539c1.021,1.771,0.385,4.26,0.174,6.286
		c2.433-0.035,5.81,0.106,7.645,1.024C38.176,23.294,35.856,30.27,34.18,33.346z"/>
</g>
</svg>
